# xmcd
#
# Track frame offsets: 
#        150
#        16391
#        33924
#        52889
#        66546
#        85877
#
# Disc length: 1399 seconds
#
# Revision: 0
# Processed by: cddbd v1.5.2PL0 Copyright (c) Steve Scherf et al.
# Submitted via: ExactAudioCopyFreeDBPlugin 1.0
#
DISCID=46057506
DTITLE=Woven Hand - Black of the Ink
DYEAR=2011
DGENRE=Alternative Country
TTITLE0=Terre Haute
TTITLE1=Not One Stone
TTITLE2=Whistling Girl
TTITLE3=Oil on Panel
TTITLE4=White Bird
TTITLE5=Last Fist
EXTD=
EXTT0=
EXTT1=
EXTT2=
EXTT3=
EXTT4=
EXTT5=
PLAYORDER=
